<?xml version="1.0" encoding="UTF-8"?>
<svg width="30px" height="30px" viewBox="0 0 30 30" version="1.1" xmlns="http://www.w3.org/2000/svg" xmlns:xlink="http://www.w3.org/1999/xlink">
    <title>aqi</title>
    <g id="aqi" stroke="none" stroke-width="1" fill="none" fill-rule="evenodd">
        <path d="M6.82,25 C7.05,25 7.26,25.08 7.43,25.25 C7.6,25.42 7.69,25.62 7.69,25.85 C7.69,26.09 7.61,26.28 7.44,26.44 C7.27,26.59 7.06,26.67 6.82,26.67 C6.6,26.67 6.41,26.59 6.25,26.43 C6.08,26.28 6,26.08 6,25.85 C6,25.62 6.08,25.42 6.24,25.25 C6.4,25.08 6.6,25 6.82,25 Z M14.75,5 C15.1642136,5 15.5,5.33578644 15.5,5.75 L15.5,12.779 L25.05,12.78 C25.2916667,12.78 25.4986111,12.7105556 25.6766204,12.5774537 L25.78,12.49 C25.98,12.3 26.08,12.06 26.08,11.77 C26.08,11.48 25.98,11.24 25.78,11.04 C25.58,10.84 25.34,10.74 25.05,10.74 C24.77,10.74 24.54,10.84 24.35,11.05 C24.17,11.21 23.96,11.29 23.72,11.29 C23.47,11.29 23.26,11.21 23.09,11.05 C22.92,10.89 22.83,10.68 22.83,10.42 C22.83,10.13 22.92,9.91 23.1,9.75 C23.63,9.22 24.28,8.95 25.05,8.95 C25.83,8.95 26.5,9.23 27.06,9.78 C27.62,10.33 27.9,11 27.9,11.77 C27.9,12.54 27.62,13.2 27.06,13.74 C26.5509091,14.24 25.9509091,14.508595 25.26,14.5532983 L25.05,14.56 L15.5,14.559 L15.5,16.079 L19.69,16.08 C20.46,16.08 21.13,16.36 21.69,16.92 C22.25,17.48 22.53,18.14 22.53,18.92 C22.53,19.7 22.26,20.35 21.7,20.89 C21.14,21.43 20.47,21.7 19.69,21.7 C18.95,21.7 18.29,21.42 17.73,20.87 C17.54,20.7 17.45,20.49 17.45,20.24 C17.45,20.01 17.54,19.8 17.72,19.63 C17.9,19.46 18.11,19.37 18.36,19.37 C18.6,19.37 18.8,19.45 18.96,19.63 C19.15,19.82 19.4,19.92 19.69,19.92 C19.99,19.92 20.23,19.82 20.43,19.63 C20.63,19.44 20.73,19.2 20.73,18.91 C20.73,18.62 20.63,18.37 20.43,18.17 C20.2633333,18.0033333 20.0688889,17.9061111 19.8408796,17.8783333 L19.7,17.87 L15.5,17.869 L15.5,25.25 C15.5,25.6642136 15.1642136,26 14.75,26 C14.3357864,26 14,25.6642136 14,25.25 L14,5.75 C14,5.33578644 14.3357864,5 14.75,5 Z M2.82,23 C3.05,23 3.26,23.08 3.43,23.25 C3.6,23.42 3.69,23.62 3.69,23.85 C3.69,24.09 3.61,24.28 3.44,24.44 C3.27,24.59 3.06,24.67 2.82,24.67 C2.6,24.67 2.41,24.59 2.25,24.43 C2.08,24.28 2,24.08 2,23.85 C2,23.62 2.08,23.42 2.24,23.25 C2.4,23.08 2.6,23 2.82,23 Z M5.49,20.76 C5.72,20.76 5.93,20.84 6.1,21.01 C6.27,21.18 6.36,21.38 6.36,21.61 C6.36,21.85 6.28,22.05 6.11,22.2 C5.94,22.35 5.73,22.43 5.49,22.43 C5.27,22.43 5.07,22.35 4.91,22.19 C4.75,22.04 4.67,21.85 4.67,21.61 C4.67,21.38 4.75,21.18 4.91,21.01 C5.07,20.84 5.27,20.76 5.49,20.76 Z M9.56,20.12 C9.79,20.12 10,20.2 10.17,20.37 C10.34,20.54 10.43,20.74 10.43,20.97 C10.43,21.21 10.35,21.4 10.18,21.56 C10.01,21.71 9.8,21.79 9.56,21.79 C9.34,21.79 9.15,21.71 8.99,21.55 C8.82,21.4 8.74,21.2 8.74,20.97 C8.74,20.74 8.82,20.54 8.98,20.37 C9.14,20.2 9.34,20.12 9.56,20.12 Z M12.5,16.079 L12.5,17.869 L5.01,17.87 C4.79333333,17.87 4.61138889,17.8075 4.46416667,17.676713 L4.38,17.59 C4.19,17.42 4.1,17.21 4.1,16.97 C4.1,16.72 4.19,16.51 4.37,16.34 C4.52,16.1983333 4.69083333,16.1122222 4.88828704,16.0874537 L5.01,16.08 L12.5,16.079 Z M12.5,12.779 L12.5,14.559 L5.01,14.56 C4.80166667,14.56 4.62111111,14.5044444 4.46833333,14.3817593 L4.38,14.3 C4.19,14.12 4.1,13.92 4.1,13.69 C4.1,13.44 4.19,13.23 4.37,13.04 C4.52,12.8983333 4.69083333,12.8122222 4.88828704,12.7874537 L5.01,12.78 L12.5,12.779 Z M2.82,10 C3.05,10 3.26,10.08 3.43,10.25 C3.6,10.42 3.69,10.62 3.69,10.85 C3.69,11.09 3.61,11.28 3.44,11.44 C3.27,11.59 3.06,11.67 2.82,11.67 C2.6,11.67 2.41,11.59 2.25,11.43 C2.08,11.28 2,11.08 2,10.85 C2,10.62 2.08,10.42 2.24,10.25 C2.4,10.08 2.6,10 2.82,10 Z M7.45,8.83 C7.68,8.83 7.89,8.92 8.05,9.08 C8.22,9.25 8.3,9.45 8.3,9.68 C8.3,9.92 8.22,10.11 8.05,10.27 C7.89,10.42 7.68,10.5 7.44,10.5 C7.22,10.5 7.02,10.42 6.86,10.26 C6.7,10.11 6.62,9.92 6.62,9.68 C6.62,9.45 6.7,9.25 6.87,9.08 C7.03,8.91 7.23,8.83 7.45,8.83 Z M10.47,6.53 C10.71,6.53 10.92,6.61 11.08,6.78 C11.25,6.95 11.34,7.15 11.34,7.38 C11.34,7.62 11.26,7.81 11.09,7.97 C10.92,8.12 10.71,8.2 10.47,8.2 C10.25,8.2 10.05,8.12 9.89,7.95 C9.73,7.8 9.65,7.61 9.65,7.37 C9.65,7.14 9.73,6.94 9.89,6.78 C10.05,6.61 10.25,6.53 10.47,6.53 Z M4.83,6 C5.06,6 5.27,6.09 5.43,6.25 C5.6,6.42 5.68,6.62 5.68,6.85 C5.68,7.09 5.6,7.28 5.43,7.44 C5.27,7.59 5.06,7.67 4.82,7.67 C4.6,7.67 4.4,7.59 4.24,7.43 C4.08,7.28 4,7.09 4,6.85 C4,6.62 4.08,6.42 4.25,6.25 C4.41,6.08 4.61,6 4.83,6 Z" fill="#000000" fill-rule="nonzero"></path>
    </g>
</svg>