<?xml version="1.0" encoding="UTF-8"?>
<svg width="30px" height="30px" viewBox="0 0 30 30" version="1.1" xmlns="http://www.w3.org/2000/svg" xmlns:xlink="http://www.w3.org/1999/xlink">
    <title>uv</title>
    <g id="uv" stroke="none" stroke-width="1" fill-rule="evenodd">
        <g id="half-sun" transform="translate(4.000000, 5.000000)">
            <path d="M8.1953125,19.6171875 C9.55859375,19.6171875 10.4335938,18.8554688 10.4335938,17.671875 L10.4335938,14.8085938 C10.4335938,14.3867188 10.1875,14.1289062 9.78515625,14.1289062 C9.37890625,14.1289062 9.140625,14.3867188 9.140625,14.8085938 L9.140625,17.5039062 C9.140625,18.140625 8.78125,18.5234375 8.1953125,18.5234375 C7.6015625,18.5234375 7.25,18.1484375 7.25,17.5039062 L7.25,14.8085938 C7.25,14.3867188 7.0078125,14.1289062 6.60546875,14.1289062 C6.19921875,14.1289062 5.95703125,14.3867188 5.95703125,14.8085938 L5.95703125,17.6679688 C5.95703125,18.8515625 6.80859375,19.6171875 8.1953125,19.6171875 Z" id="Path" fill-rule="nonzero"></path>
            <path d="M13.50625,19.5390625 C14.0648438,19.5390625 14.3773438,19.2695312 14.584375,18.6289062 L15.7367188,15.203125 C15.7953125,15.0195312 15.8382813,14.8203125 15.8382813,14.6914062 C15.8382813,14.3515625 15.5765625,14.1210938 15.2054688,14.1210938 C14.8617188,14.1210938 14.6703125,14.3046875 14.5453125,14.7578125 L13.5492188,18.1171875 L13.490625,18.1171875 L12.4710938,14.7578125 C12.3421875,14.328125 12.1273438,14.1210938 11.7953125,14.1210938 C11.4242187,14.1210938 11.1585937,14.359375 11.1585937,14.703125 C11.1585937,14.828125 11.19375,15.0078125 11.2601562,15.203125 L12.4125,18.6289062 C12.615625,19.265625 12.9398438,19.5390625 13.50625,19.5390625 Z" id="Path" fill-rule="nonzero"></path>
            <path d="M0,10.78 C0,10.54 0.09,10.34 0.27,10.17 C0.44,10 0.65,9.92 0.89,9.92 L2.95,9.92 C3.19,9.92 3.39,10 3.55,10.17 C3.72,10.34 3.8,10.54 3.8,10.78 C3.8,11.03 3.72,11.24 3.55,11.41 C3.38,11.58 3.18,11.66 2.95,11.66 L0.89,11.66 C0.64,11.66 0.43,11.58 0.26,11.41 C0.08,11.24 0,11.03 0,10.78 Z" id="Path"></path>
            <path d="M2.92,3.76 C2.92,3.53 3,3.32 3.16,3.14 C3.36,2.98 3.57,2.89 3.82,2.89 C4.03,2.89 4.23,2.97 4.41,3.14 L5.86,4.62 C6.03,4.78 6.11,4.98 6.11,5.22 C6.11,5.46 6.03,5.66 5.86,5.82 C5.69,5.99 5.5,6.07 5.26,6.07 C5,6.07 4.8,5.99 4.65,5.82 L3.15,4.38 C3.01,4.21 2.92,4 2.92,3.76 Z" id="Path"></path>
            <path d="M5.53,10.78 C5.53,10.07 5.67,9.39 5.96,8.74 C6.24,8.09 6.63,7.52 7.1,7.05 C7.58,6.58 8.15,6.2 8.8,5.92 C9.45,5.64 10.14,5.49 10.86,5.49 C11.82,5.49 12.7,5.73 13.52,6.21 C14.34,6.69 14.99,7.33 15.46,8.15 C15.93,8.96 16.17,9.84 16.17,10.78 C16.17,10.93 16.16,11.07 16.14,11.2 C15.86,11.03 15.54,10.95 15.17,10.95 C14.93,10.95 14.69,11 14.45,11.1 C14.46,11.03 14.46,10.92 14.46,10.78 C14.46,9.8 14.11,8.97 13.4,8.28 C12.69,7.59 11.84,7.24 10.85,7.24 C9.86,7.24 9.02,7.59 8.31,8.28 C7.6,8.97 7.26,9.8 7.26,10.78 L7.26,10.96 C6.97,10.98 6.69,11.06 6.42,11.21 C6.41,11.22 6.38,11.24 6.32,11.28 C6.26,11.32 6.2,11.37 6.13,11.42 C6.06,11.47 5.99,11.53 5.9,11.61 C5.81,11.69 5.72,11.77 5.64,11.85 C5.56,11.53 5.53,11.17 5.53,10.78 Z" id="Path"></path>
            <path d="M9.98,2.94 L9.98,0.87 C9.98,0.63 10.07,0.42 10.24,0.25 C10.41,0.08 10.62,0 10.85,0 C11.09,0 11.3,0.08 11.47,0.25 C11.64,0.42 11.72,0.63 11.72,0.87 L11.72,2.94 C11.72,3.18 11.64,3.37 11.47,3.53 C11.3,3.69 11.1,3.76 10.86,3.76 C10.62,3.76 10.42,3.68 10.25,3.53 C10.07,3.37 9.98,3.18 9.98,2.94 Z" id="Path"></path>
            <path d="M15.63,5.23 C15.63,4.98 15.71,4.78 15.86,4.63 L17.32,3.15 C17.5,2.98 17.7,2.9 17.93,2.9 C18.17,2.9 18.37,2.99 18.54,3.16 C18.71,3.33 18.8,3.54 18.8,3.77 C18.8,4.02 18.71,4.23 18.54,4.39 L17.06,5.83 C16.88,6 16.68,6.08 16.45,6.08 C16.22,6.08 16.02,6 15.87,5.83 C15.71,5.67 15.63,5.46 15.63,5.23 Z" id="Path"></path>
            <path d="M17.93,10.78 C17.93,10.56 18.02,10.36 18.19,10.17 C18.35,10 18.54,9.92 18.77,9.92 L20.83,9.92 C21.07,9.92 21.28,10.01 21.45,10.18 C21.62,10.35 21.72,10.55 21.72,10.78 C21.72,11.02 21.63,11.23 21.46,11.4 C21.28,11.57 21.08,11.66 20.83,11.66 L18.77,11.66 C18.53,11.66 18.32,11.58 18.17,11.41 C18.01,11.24 17.93,11.03 17.93,10.78 Z" id="Path"></path>
        </g>
    </g>
</svg>
