<?xml version="1.0" encoding="UTF-8"?>
<svg width="30px" height="30px" viewBox="0 0 30 30" version="1.1" xmlns="http://www.w3.org/2000/svg" xmlns:xlink="http://www.w3.org/1999/xlink">
    <title>visibility</title>
    <g id="visibility" stroke="none" stroke-width="1" fill="none" fill-rule="evenodd">
        <path d="M15,10 C19.9425148,10 24.3181417,12.3658042 27,15.999007 C24.3190997,19.6336778 19.9430559,22 15,22 C10.0574852,22 5.68185827,19.6341958 3,16.000993 C5.68090029,12.3663222 10.0569441,10 15,10 Z M15,12 C12.790861,12 11,13.790861 11,16 C11,18.209139 12.790861,20 15,20 C17.209139,20 19,18.209139 19,16 C19,13.790861 17.209139,12 15,12 Z M15,14 C16.1045695,14 17,14.8954305 17,16 C17,17.1045695 16.1045695,18 15,18 C13.8954305,18 13,17.1045695 13,16 C13,14.8954305 13.8954305,14 15,14 Z" fill="#000000"></path>
    </g>
</svg>